# xmcd
#
# Track frame offsets: 
#        150
#        11249
#        25888
#        36606
#        44135
#        57328
#        69131
#        102990
#        114045
#        135554
#
# Disc length: 2072 seconds
#
# Revision: 0
# Processed by: cddbd v1.5.2PL0 Copyright (c) Steve Scherf et al.
# Submitted via: ExactAudioCopyFreeDBPlugin 1.0
#
DISCID=8808160a
DTITLE=Various Artist - Forever Soul R&B, Disc 3
DYEAR=2008
DGENRE=R&B
TTITLE0=The Drifters - Save The Last Dance For Me
TTITLE1=Ben E. King - Stand By Me
TTITLE2=Dionne Warwick - Walk On By (Live)
TTITLE3=Maurice Williams - Stay
TTITLE4=Brook Benton - Baby You've Got What It Takes
TTITLE5=The Drifters - Under The Boardwalk
TTITLE6=Ray Charles - Georgia On My Mind
TTITLE7=The Crystals - He's a Rebel
TTITLE8=Teddy Pendergrass - Turn Off the Lights
TTITLE9=Ben E. King - Supernatural Thing (Part 1)
EXTD=
EXTT0=
EXTT1=
EXTT2=
EXTT3=
EXTT4=
EXTT5=
EXTT6=
EXTT7=
EXTT8=
EXTT9=
PLAYORDER=
